<mxfile host="Electron" modified="2024-02-03T19:20:25.679Z" agent="Mozilla/5.0 (Windows NT 10.0; Win64; x64) AppleWebKit/537.36 (KHTML, like Gecko) draw.io/23.0.2 Chrome/120.0.6099.109 Electron/28.1.0 Safari/537.36" etag="ygzbMjZKePu1MDw-6PU2" version="23.0.2" type="device">
  <diagram name="Page-1" id="t5oQr2Oa12oH5Eax1Csj">
    <mxGraphModel dx="915" dy="683" grid="1" gridSize="10" guides="1" tooltips="1" connect="1" arrows="1" fold="1" page="1" pageScale="1" pageWidth="827" pageHeight="1169" math="0" shadow="0">
      <root>
        <mxCell id="0" />
        <mxCell id="1" parent="0" />
        <mxCell id="WchNHMiv1jiobEMOiQwt-17" style="edgeStyle=orthogonalEdgeStyle;rounded=0;orthogonalLoop=1;jettySize=auto;html=1;exitX=0.5;exitY=1;exitDx=0;exitDy=0;entryX=0.5;entryY=0;entryDx=0;entryDy=0;" edge="1" parent="1" source="WchNHMiv1jiobEMOiQwt-3" target="WchNHMiv1jiobEMOiQwt-5">
          <mxGeometry relative="1" as="geometry" />
        </mxCell>
        <mxCell id="WchNHMiv1jiobEMOiQwt-3" value="Input field" style="rounded=0;whiteSpace=wrap;html=1;fillColor=#d80073;fontColor=#ffffff;strokeColor=#A50040;" vertex="1" parent="1">
          <mxGeometry x="60" y="100" width="120" height="60" as="geometry" />
        </mxCell>
        <mxCell id="WchNHMiv1jiobEMOiQwt-12" style="edgeStyle=orthogonalEdgeStyle;rounded=0;orthogonalLoop=1;jettySize=auto;html=1;exitX=1;exitY=0.5;exitDx=0;exitDy=0;entryX=0;entryY=0.5;entryDx=0;entryDy=0;" edge="1" parent="1" source="WchNHMiv1jiobEMOiQwt-4" target="WchNHMiv1jiobEMOiQwt-6">
          <mxGeometry relative="1" as="geometry" />
        </mxCell>
        <mxCell id="WchNHMiv1jiobEMOiQwt-4" value="Message view field" style="rounded=0;whiteSpace=wrap;html=1;fillColor=#d80073;fontColor=#ffffff;strokeColor=#A50040;" vertex="1" parent="1">
          <mxGeometry x="294" y="100" width="120" height="60" as="geometry" />
        </mxCell>
        <mxCell id="WchNHMiv1jiobEMOiQwt-19" style="edgeStyle=orthogonalEdgeStyle;rounded=0;orthogonalLoop=1;jettySize=auto;html=1;exitX=0.5;exitY=1;exitDx=0;exitDy=0;" edge="1" parent="1" source="WchNHMiv1jiobEMOiQwt-5" target="WchNHMiv1jiobEMOiQwt-18">
          <mxGeometry relative="1" as="geometry" />
        </mxCell>
        <mxCell id="WchNHMiv1jiobEMOiQwt-5" value="Send button" style="rounded=0;whiteSpace=wrap;html=1;" vertex="1" parent="1">
          <mxGeometry x="60" y="250" width="120" height="60" as="geometry" />
        </mxCell>
        <mxCell id="WchNHMiv1jiobEMOiQwt-13" style="edgeStyle=orthogonalEdgeStyle;rounded=0;orthogonalLoop=1;jettySize=auto;html=1;exitX=1;exitY=0.5;exitDx=0;exitDy=0;entryX=0;entryY=0.5;entryDx=0;entryDy=0;" edge="1" parent="1" source="WchNHMiv1jiobEMOiQwt-6" target="WchNHMiv1jiobEMOiQwt-8">
          <mxGeometry relative="1" as="geometry" />
        </mxCell>
        <mxCell id="WchNHMiv1jiobEMOiQwt-6" value="Message" style="rounded=0;whiteSpace=wrap;html=1;" vertex="1" parent="1">
          <mxGeometry x="450" y="100" width="120" height="60" as="geometry" />
        </mxCell>
        <mxCell id="WchNHMiv1jiobEMOiQwt-14" style="edgeStyle=orthogonalEdgeStyle;rounded=0;orthogonalLoop=1;jettySize=auto;html=1;exitX=0.5;exitY=1;exitDx=0;exitDy=0;" edge="1" parent="1" source="WchNHMiv1jiobEMOiQwt-8" target="WchNHMiv1jiobEMOiQwt-9">
          <mxGeometry relative="1" as="geometry" />
        </mxCell>
        <mxCell id="WchNHMiv1jiobEMOiQwt-15" style="edgeStyle=orthogonalEdgeStyle;rounded=0;orthogonalLoop=1;jettySize=auto;html=1;exitX=0.5;exitY=1;exitDx=0;exitDy=0;" edge="1" parent="1" source="WchNHMiv1jiobEMOiQwt-8" target="WchNHMiv1jiobEMOiQwt-10">
          <mxGeometry relative="1" as="geometry" />
        </mxCell>
        <mxCell id="WchNHMiv1jiobEMOiQwt-16" style="edgeStyle=orthogonalEdgeStyle;rounded=0;orthogonalLoop=1;jettySize=auto;html=1;exitX=0.5;exitY=1;exitDx=0;exitDy=0;" edge="1" parent="1" source="WchNHMiv1jiobEMOiQwt-8" target="WchNHMiv1jiobEMOiQwt-11">
          <mxGeometry relative="1" as="geometry" />
        </mxCell>
        <mxCell id="WchNHMiv1jiobEMOiQwt-8" value="Select" style="ellipse;whiteSpace=wrap;html=1;" vertex="1" parent="1">
          <mxGeometry x="610" y="90" width="120" height="80" as="geometry" />
        </mxCell>
        <mxCell id="WchNHMiv1jiobEMOiQwt-20" style="edgeStyle=orthogonalEdgeStyle;rounded=0;orthogonalLoop=1;jettySize=auto;html=1;exitX=0.5;exitY=1;exitDx=0;exitDy=0;entryX=1;entryY=0.5;entryDx=0;entryDy=0;" edge="1" parent="1" source="WchNHMiv1jiobEMOiQwt-9" target="WchNHMiv1jiobEMOiQwt-3">
          <mxGeometry relative="1" as="geometry">
            <Array as="points">
              <mxPoint x="670" y="340" />
              <mxPoint x="200" y="340" />
              <mxPoint x="200" y="130" />
            </Array>
          </mxGeometry>
        </mxCell>
        <mxCell id="WchNHMiv1jiobEMOiQwt-9" value="Reply" style="ellipse;whiteSpace=wrap;html=1;" vertex="1" parent="1">
          <mxGeometry x="610" y="240" width="120" height="80" as="geometry" />
        </mxCell>
        <mxCell id="WchNHMiv1jiobEMOiQwt-21" style="edgeStyle=orthogonalEdgeStyle;rounded=0;orthogonalLoop=1;jettySize=auto;html=1;exitX=0.5;exitY=1;exitDx=0;exitDy=0;entryX=1;entryY=0.5;entryDx=0;entryDy=0;" edge="1" parent="1" source="WchNHMiv1jiobEMOiQwt-10" target="WchNHMiv1jiobEMOiQwt-3">
          <mxGeometry relative="1" as="geometry">
            <Array as="points">
              <mxPoint x="530" y="340" />
              <mxPoint x="200" y="340" />
              <mxPoint x="200" y="130" />
            </Array>
          </mxGeometry>
        </mxCell>
        <mxCell id="WchNHMiv1jiobEMOiQwt-10" value="Edit" style="ellipse;whiteSpace=wrap;html=1;" vertex="1" parent="1">
          <mxGeometry x="470" y="240" width="120" height="80" as="geometry" />
        </mxCell>
        <mxCell id="WchNHMiv1jiobEMOiQwt-25" style="edgeStyle=orthogonalEdgeStyle;rounded=0;orthogonalLoop=1;jettySize=auto;html=1;exitX=0.5;exitY=1;exitDx=0;exitDy=0;entryX=0.5;entryY=1;entryDx=0;entryDy=0;" edge="1" parent="1" source="WchNHMiv1jiobEMOiQwt-11" target="WchNHMiv1jiobEMOiQwt-22">
          <mxGeometry relative="1" as="geometry">
            <Array as="points">
              <mxPoint x="390" y="330" />
              <mxPoint x="270" y="330" />
            </Array>
          </mxGeometry>
        </mxCell>
        <mxCell id="WchNHMiv1jiobEMOiQwt-11" value="Delete" style="ellipse;whiteSpace=wrap;html=1;" vertex="1" parent="1">
          <mxGeometry x="330" y="240" width="120" height="80" as="geometry" />
        </mxCell>
        <mxCell id="WchNHMiv1jiobEMOiQwt-24" style="edgeStyle=orthogonalEdgeStyle;rounded=0;orthogonalLoop=1;jettySize=auto;html=1;exitX=0.5;exitY=1;exitDx=0;exitDy=0;entryX=0.5;entryY=0;entryDx=0;entryDy=0;fillColor=#d80073;strokeColor=#A50040;" edge="1" parent="1" source="WchNHMiv1jiobEMOiQwt-28" target="WchNHMiv1jiobEMOiQwt-4">
          <mxGeometry relative="1" as="geometry">
            <Array as="points">
              <mxPoint x="20" y="40" />
              <mxPoint x="354" y="40" />
            </Array>
          </mxGeometry>
        </mxCell>
        <mxCell id="WchNHMiv1jiobEMOiQwt-18" value="Send message" style="ellipse;whiteSpace=wrap;html=1;" vertex="1" parent="1">
          <mxGeometry x="60" y="390" width="120" height="80" as="geometry" />
        </mxCell>
        <mxCell id="WchNHMiv1jiobEMOiQwt-22" value="Confirmation pop-up" style="rounded=0;whiteSpace=wrap;html=1;" vertex="1" parent="1">
          <mxGeometry x="210" y="200" width="120" height="60" as="geometry" />
        </mxCell>
        <mxCell id="WchNHMiv1jiobEMOiQwt-26" value="" style="swimlane;startSize=0;" vertex="1" parent="1">
          <mxGeometry x="190" y="190" width="590" height="200" as="geometry" />
        </mxCell>
        <mxCell id="WchNHMiv1jiobEMOiQwt-27" value="Selection view" style="text;html=1;strokeColor=none;fillColor=none;align=center;verticalAlign=middle;whiteSpace=wrap;rounded=0;" vertex="1" parent="WchNHMiv1jiobEMOiQwt-26">
          <mxGeometry x="10" y="160" width="60" height="30" as="geometry" />
        </mxCell>
        <mxCell id="WchNHMiv1jiobEMOiQwt-33" value="Stage 3" style="text;html=1;strokeColor=none;fillColor=none;align=center;verticalAlign=middle;whiteSpace=wrap;rounded=0;" vertex="1" parent="WchNHMiv1jiobEMOiQwt-26">
          <mxGeometry x="520" y="160" width="60" height="30" as="geometry" />
        </mxCell>
        <mxCell id="WchNHMiv1jiobEMOiQwt-29" value="" style="edgeStyle=orthogonalEdgeStyle;rounded=0;orthogonalLoop=1;jettySize=auto;html=1;exitX=0.5;exitY=1;exitDx=0;exitDy=0;entryX=0.5;entryY=0;entryDx=0;entryDy=0;" edge="1" parent="1" source="WchNHMiv1jiobEMOiQwt-18" target="WchNHMiv1jiobEMOiQwt-28">
          <mxGeometry relative="1" as="geometry">
            <mxPoint x="120" y="470" as="sourcePoint" />
            <mxPoint x="354" y="100" as="targetPoint" />
            <Array as="points">
              <mxPoint x="120" y="490" />
              <mxPoint x="20" y="490" />
            </Array>
          </mxGeometry>
        </mxCell>
        <mxCell id="WchNHMiv1jiobEMOiQwt-28" value="" style="swimlane;startSize=0;fillColor=#d80073;fontColor=#ffffff;strokeColor=#A50040;" vertex="1" parent="1">
          <mxGeometry x="20" y="40" width="410" height="130" as="geometry" />
        </mxCell>
        <mxCell id="WchNHMiv1jiobEMOiQwt-32" value="Stage 1" style="text;html=1;strokeColor=#A50040;fillColor=#d80073;align=center;verticalAlign=middle;whiteSpace=wrap;rounded=0;fontColor=#ffffff;" vertex="1" parent="WchNHMiv1jiobEMOiQwt-28">
          <mxGeometry x="20" y="10" width="60" height="30" as="geometry" />
        </mxCell>
        <mxCell id="WchNHMiv1jiobEMOiQwt-35" value="" style="swimlane;startSize=0;" vertex="1" parent="1">
          <mxGeometry x="10" y="20" width="790" height="500" as="geometry" />
        </mxCell>
        <mxCell id="WchNHMiv1jiobEMOiQwt-34" value="Stage 2" style="text;html=1;strokeColor=none;fillColor=none;align=center;verticalAlign=middle;whiteSpace=wrap;rounded=0;" vertex="1" parent="WchNHMiv1jiobEMOiQwt-35">
          <mxGeometry x="720" y="460" width="60" height="30" as="geometry" />
        </mxCell>
        <mxCell id="WchNHMiv1jiobEMOiQwt-36" value="Message DB" style="shape=cylinder3;whiteSpace=wrap;html=1;boundedLbl=1;backgroundOutline=1;size=15;" vertex="1" parent="1">
          <mxGeometry x="50" y="545" width="60" height="80" as="geometry" />
        </mxCell>
        <mxCell id="WchNHMiv1jiobEMOiQwt-37" value="Stage 4" style="text;html=1;strokeColor=none;fillColor=none;align=center;verticalAlign=middle;whiteSpace=wrap;rounded=0;" vertex="1" parent="1">
          <mxGeometry x="50" y="640" width="60" height="30" as="geometry" />
        </mxCell>
        <mxCell id="WchNHMiv1jiobEMOiQwt-38" value="Apply to chat" style="ellipse;shape=cloud;whiteSpace=wrap;html=1;" vertex="1" parent="1">
          <mxGeometry x="294" y="545" width="120" height="80" as="geometry" />
        </mxCell>
        <mxCell id="WchNHMiv1jiobEMOiQwt-39" style="edgeStyle=orthogonalEdgeStyle;rounded=0;orthogonalLoop=1;jettySize=auto;html=1;exitX=1;exitY=0.5;exitDx=0;exitDy=0;entryX=0.4;entryY=0.1;entryDx=0;entryDy=0;entryPerimeter=0;" edge="1" parent="1" source="WchNHMiv1jiobEMOiQwt-18" target="WchNHMiv1jiobEMOiQwt-38">
          <mxGeometry relative="1" as="geometry" />
        </mxCell>
        <mxCell id="WchNHMiv1jiobEMOiQwt-41" style="edgeStyle=orthogonalEdgeStyle;rounded=0;orthogonalLoop=1;jettySize=auto;html=1;exitX=0.25;exitY=1;exitDx=0;exitDy=0;entryX=0.4;entryY=0.1;entryDx=0;entryDy=0;entryPerimeter=0;" edge="1" parent="1" source="WchNHMiv1jiobEMOiQwt-22" target="WchNHMiv1jiobEMOiQwt-38">
          <mxGeometry relative="1" as="geometry">
            <Array as="points">
              <mxPoint x="300" y="260" />
              <mxPoint x="300" y="430" />
              <mxPoint x="342" y="430" />
            </Array>
          </mxGeometry>
        </mxCell>
        <mxCell id="WchNHMiv1jiobEMOiQwt-42" value="Connection stage" style="text;html=1;strokeColor=none;fillColor=none;align=center;verticalAlign=middle;whiteSpace=wrap;rounded=0;" vertex="1" parent="1">
          <mxGeometry x="330" y="640" width="60" height="30" as="geometry" />
        </mxCell>
      </root>
    </mxGraphModel>
  </diagram>
</mxfile>
